<?xml version="1.0" encoding="UTF-8"?>
<svg width="160px" height="85px" viewBox="0 0 90 81" version="1.1" xmlns="http://www.w3.org/2000/svg" xmlns:xlink="http://www.w3.org/1999/xlink">
    <title>ga_logo</title>
    <g id="Page-1" stroke="none" stroke-width="1" fill="none" fill-rule="evenodd">
        <g id="Desktop-HD" transform="translate(-60.000000, -59.000000)">
            <g id="ga_logo" transform="translate(60.000000, 59.000000)">
                <path d="M40.2,0 C62.365275,0 80.4,18.034725 80.4,40.2 C80.4,47.92845 78.234225,55.350375 74.1288,61.7472 L80.2191,76.95285 C80.59095,77.8875 80.374875,78.9528 79.661325,79.66635 C79.18395,80.143725 78.54075,80.4 77.8875,80.4 C77.570925,80.4 77.259375,80.3397 76.95285,80.2191 L61.7472,74.1288 C55.350375,78.234225 47.92845,80.4 40.2,80.4 C18.034725,80.4 0,62.365275 0,40.2 C0,18.034725 18.034725,0 40.2,0 Z M40.4392857,4.06785714 C20.3830408,4.06785714 4.06785714,20.3830408 4.06785714,40.4392857 C4.06785714,60.4955306 20.3830408,76.8107143 40.4392857,76.8107143 C47.8486653,76.8107143 54.9410939,74.6180367 60.9423796,70.466498 C61.3788367,70.1599388 61.8984286,70.0040612 62.4180204,70.0040612 C62.7453633,70.0040612 63.0727061,70.0664122 63.3844612,70.1911143 L74.7427388,74.7427388 L70.1911143,63.3844612 C69.8689673,62.573898 69.9728857,61.6542204 70.466498,60.9423796 C74.6180367,54.9410939 76.8107143,47.8486653 76.8107143,40.4392857 C76.8107143,20.3830408 60.4955306,4.06785714 40.4392857,4.06785714 Z M44.2799734,12 L48.5944482,12.8502657 C47.8701719,14.6453255 48.6889068,16.6923679 50.483971,17.4167124 C52.1867585,18.1160795 54.1537811,17.376823 54.9677002,15.7093144 L55.0504288,15.5271241 L58.7035531,17.9835328 C57.3179263,19.3377635 57.3179263,21.5421898 58.7035531,22.8964204 C60.0093539,24.2022181 62.1058388,24.2488538 63.4681172,23.0363273 L63.6163825,22.8964204 L66.0728673,26.5495358 C64.2778031,27.3053431 63.4274653,29.3208526 64.1832744,31.1159825 C64.8826432,32.8491437 66.8150651,33.6723459 68.5348195,33.074965 L68.7181993,33.0055007 L69.6,37.3201051 C67.6790143,37.3201051 66.1043302,38.8632526 66.1043302,40.7843036 C66.1043302,42.6717337 67.575785,44.1766336 69.4091013,44.2748631 L69.6,44.279965 L68.7497322,48.5944292 C66.954668,47.8700847 64.9076207,48.7204204 64.1832744,50.4840175 C63.4526589,52.219242 64.2228985,54.1604645 65.8965345,54.9706692 L66.0728673,55.0503942 L63.6163825,58.7035796 C62.2622186,57.349419 60.0577169,57.349419 58.7035531,58.7035796 C57.367413,60.0093773 57.3196937,62.1058571 58.5603952,63.4681321 L58.7035531,63.6163971 L55.0504288,66.0728058 C54.2946197,64.277746 52.2475724,63.4274803 50.483971,64.1832876 C48.7487423,64.8834196 47.9258391,66.8196046 48.5271429,68.5693766 L48.5944482,68.7496642 L44.2799734,69.6 C44.2799734,67.6789489 42.7368222,66.1042686 40.7842335,66.1042686 C38.927213,66.1042686 37.4233887,67.5757199 37.3251971,69.409095 L37.3200966,69.6 L33.0056219,68.7496642 C33.7299682,66.9546044 32.8796304,64.907562 31.116029,64.1832876 C29.3808002,63.4526739 27.4101073,64.2228461 26.6263565,65.8964737 L26.5495712,66.0728058 L22.8964469,63.6163971 C24.2506108,62.2622365 24.2506108,60.0577401 22.8964469,58.7035796 C21.5906461,57.3977819 19.4941612,57.3511462 18.1036092,58.5636727 L17.9520846,58.7035796 L15.5271327,55.0503942 C17.290734,54.2945869 18.1410719,52.2790774 17.4167256,50.4840175 C16.7165242,48.779207 14.7803976,47.9277885 13.0305624,48.5272192 L12.8502678,48.5944292 L12,44.279965 C13.9210558,44.279965 15.4956698,42.7368175 15.4956698,40.7843036 C15.4956698,38.9272876 14.0242805,37.4234015 12.1909053,37.3252058 L12,37.3201051 L12.8502678,33.0055007 C14.6454021,33.7299854 16.6923793,32.9110423 17.4167256,31.1159825 C18.1160944,29.3827536 17.3475056,27.4440817 15.7062893,26.6321556 L15.5271327,26.5495358 L17.9520846,22.8964204 C19.3377814,24.250581 21.5422831,24.250581 22.8964469,22.8964204 C24.2022478,21.5905552 24.2488836,19.4941381 23.0363542,18.1318048 L22.8964469,17.9835328 L26.5495712,15.5271241 C27.2739175,17.3221839 29.3209648,18.1410569 31.116029,17.4167124 C32.8208437,16.7165127 33.6722643,14.7803254 33.0728321,13.0305533 L33.0056219,12.8502657 L37.3200966,12 C37.3200966,13.920981 38.8631778,15.4956613 40.7842335,15.4956613 C42.7368222,15.4956613 44.2799734,13.920981 44.2799734,12 Z M32.9110932,23.6836905 C30.9271117,23.6836905 29.4468862,24.250581 28.4076312,25.4157547 C27.3998966,26.4828428 26.8942603,27.8846207 26.8382607,29.6212055 L26.8330171,29.9507387 L26.8330171,51.6492613 C26.8330171,53.5387796 27.399909,55.0503942 28.4706269,56.1841752 C29.5414149,57.3178861 30.9585746,57.8847066 32.9426261,57.8847066 C34.9581405,57.8847066 36.438296,57.2863533 37.477551,56.1527124 C38.4852856,55.0856244 38.9909219,53.6838464 39.0469215,51.9472617 L39.0521651,51.6177285 L39.0521651,41.697565 L32.9110932,41.697565 L32.9110932,45.7915796 L34.4542444,45.7915796 L34.4542444,51.9326365 C34.4542444,52.7829723 33.761431,53.4443212 32.9110932,53.4443212 C32.1108412,53.4443212 31.5058048,52.8584896 31.4373931,52.1069269 L31.4309378,51.9641693 L31.4309378,29.6042978 C31.4309378,28.7540321 32.0608255,28.0926832 32.9110932,28.0926832 C33.7141901,28.0926832 34.4049056,28.6544636 34.479173,29.4332244 L34.4857773,29.572835 L34.4857773,35.1471416 L39.0521651,35.1471416 L39.0521651,29.9507387 C39.0521651,28.0611504 38.4538103,26.5495358 37.4145553,25.4157547 C36.3438373,24.250581 34.9266777,23.6836905 32.9110932,23.6836905 Z M50.2005251,23.935673 L44.6264151,23.935673 L40.1858788,57.6012613 L45.0042496,57.6012613 L46.0435047,49.4133022 L48.8148983,49.4133022 L49.8541534,57.6012613 L54.6725243,57.6012613 L50.2005251,23.935673 Z M47.0549258,39.84 C48.3666702,39.84 49.44,40.9229256 49.44,42.2399674 C49.44,43.5570744 48.3666702,44.64 47.0549258,44.64 C45.7132635,44.64 44.64,43.5570744 44.64,42.2399674 C44.64,40.9229256 45.7132635,39.84 47.0549258,39.84 Z" fill="#FA4542"></path>
                <path d="M101.638315,80.4 C102.737572,80.3319149 103.562015,79.8638298 104.111643,78.9957447 C104.661272,78.1276596 104.936086,77.1829787 104.936086,76.1617021 L104.936086,67.4808511 L102.359703,67.4808511 L102.359703,74.8340426 C102.359703,75.7531915 102.265235,76.4425532 102.076301,76.9021277 C101.887366,77.3617021 101.466557,77.5914894 100.813873,77.5914894 L98.340545,77.5914894 C97.4473988,77.5914894 96.8634187,77.3531915 96.5886045,76.8765957 C96.3137903,76.4 96.1763832,75.7191489 96.1763832,74.8340426 L96.1763832,47.5148936 C96.1763832,46.6978723 96.3137903,46.0425532 96.5886045,45.5489362 C96.8634187,45.0553191 97.2069364,44.8085106 97.6191577,44.8085106 L100.813873,44.8085106 C101.466557,44.8085106 101.887366,45.0297872 102.076301,45.4723404 C102.265235,45.9148936 102.359703,46.5957447 102.359703,47.5148936 L102.359703,54.9191489 L104.936086,54.9191489 L104.936086,46.1361702 C104.936086,45.1489362 104.609744,44.2382979 103.95706,43.4042553 C103.304377,42.5702128 102.428406,42.1021277 101.329149,42 L97.2069364,42 C96.0733278,42 95.1887696,42.4595745 94.5532618,43.3787234 C93.9177539,44.2978723 93.6,45.3361702 93.6,46.493617 L93.6,75.906383 C93.6,76.4510638 93.6601156,76.9787234 93.7803468,77.4893617 C93.900578,78 94.0981007,78.4595745 94.3729149,78.8680851 C94.6477291,79.2765957 95.0084228,79.6255319 95.4549959,79.9148936 C95.901569,80.2042553 96.4340215,80.3659574 97.0523534,80.4 L101.638315,80.4 Z M112.149959,80.4 L112.149959,62.0170213 L118.281751,62.0170213 L118.281751,80.4 L120.858134,80.4 L120.858134,42 L118.281751,42 L118.281751,59.1574468 L112.149959,59.1574468 L112.149959,42 L109.573576,42 L109.573576,80.4 L112.149959,80.4 Z M128.278117,80.4 L130.030058,67.6851064 L135.234352,67.6851064 L137.192403,80.4 L139.974897,80.4 L134.100743,42 L131.112139,42 L125.444096,80.4 L128.278117,80.4 Z M134.770603,64.6723404 L130.442279,64.6723404 L132.606441,49.812766 L134.770603,64.6723404 Z M151.620149,80.4 L151.620149,44.8085106 L156,44.8085106 L156,42 L144.560859,42 L144.560859,44.8085106 L148.992238,44.8085106 L148.992238,80.4 L151.620149,80.4 Z" id="CHAT" fill="#FFFFFF" fill-rule="nonzero"></path>
            </g>
        </g>
    </g>
</svg>
